<?xml version="1.0" standalone="no"?>
<!DOCTYPE svg PUBLIC "-//W3C//DTD SVG 20010904//EN"
 "http://www.w3.org/TR/2001/REC-SVG-20010904/DTD/svg10.dtd">
<svg version="1.0" xmlns="http://www.w3.org/2000/svg"
 width="298.000000pt" height="150.000000pt" viewBox="0 0 298.000000 150.000000"
 preserveAspectRatio="xMidYMid meet">

<g transform="translate(0.000000,150.000000) scale(0.100000,-0.100000)"
fill="#ffffff" stroke="none">
<path d="M1251 1474 c-105 -22 -240 -95 -326 -176 -129 -120 -198 -247 -234
-428 -16 -79 -18 -109 -10 -175 12 -95 32 -177 59 -240 11 -26 20 -49 20 -51
0 -2 -20 -4 -45 -4 -33 0 -45 -4 -45 -15 0 -12 13 -15 60 -15 33 0 60 -4 60
-9 0 -19 101 -137 158 -184 59 -50 173 -113 254 -140 85 -29 215 -41 313 -28
318 43 560 261 635 574 11 45 20 101 20 125 0 40 1 42 31 42 24 0 30 4 27 18
-2 10 -14 18 -29 20 -23 3 -26 9 -42 90 -36 193 -139 359 -297 478 -56 42
-194 104 -268 119 -84 18 -257 18 -341 -1z"/>
<path d="M10 1150 c0 -18 7 -20 60 -20 53 0 60 2 60 20 0 18 -7 20 -60 20 -53
0 -60 -2 -60 -20z"/>
<path d="M170 1150 c0 -18 7 -20 60 -20 53 0 60 2 60 20 0 18 -7 20 -60 20
-53 0 -60 -2 -60 -20z"/>
<path d="M330 1150 c0 -18 7 -20 60 -20 53 0 60 2 60 20 0 18 -7 20 -60 20
-53 0 -60 -2 -60 -20z"/>
<path d="M490 1150 c0 -18 7 -20 60 -20 53 0 60 2 60 20 0 18 -7 20 -60 20
-53 0 -60 -2 -60 -20z"/>
<path d="M650 1150 c0 -18 7 -20 60 -20 53 0 60 2 60 20 0 18 -7 20 -60 20
-53 0 -60 -2 -60 -20z"/>
<path d="M30 770 c0 -18 6 -20 61 -20 52 0 60 2 57 18 -2 13 -15 18 -61 20
-52 3 -57 1 -57 -18z"/>
<path d="M190 770 c0 -18 6 -20 61 -20 52 0 60 2 57 18 -2 13 -15 18 -61 20
-52 3 -57 1 -57 -18z"/>
<path d="M350 770 c0 -18 6 -20 61 -20 52 0 60 2 57 18 -2 13 -15 18 -61 20
-52 3 -57 1 -57 -18z"/>
<path d="M510 770 c0 -18 6 -20 61 -20 52 0 60 2 57 18 -2 13 -15 18 -61 20
-52 3 -57 1 -57 -18z"/>
<path d="M2270 770 c0 -18 6 -20 61 -20 52 0 60 2 57 18 -2 13 -15 18 -61 20
-52 3 -57 1 -57 -18z"/>
<path d="M2430 770 c0 -18 6 -20 61 -20 52 0 60 2 57 18 -2 13 -15 18 -61 20
-52 3 -57 1 -57 -18z"/>
<path d="M2590 770 c0 -18 6 -20 61 -20 52 0 60 2 57 18 -2 13 -15 18 -61 20
-52 3 -57 1 -57 -18z"/>
<path d="M2750 770 c0 -18 6 -20 61 -20 52 0 60 2 57 18 -2 13 -15 18 -61 20
-52 3 -57 1 -57 -18z"/>
<path d="M2910 770 c0 -16 7 -20 30 -20 23 0 30 4 30 20 0 16 -7 20 -30 20
-23 0 -30 -4 -30 -20z"/>
<path d="M30 385 c0 -12 13 -15 60 -15 47 0 60 3 60 15 0 12 -13 15 -60 15
-47 0 -60 -3 -60 -15z"/>
<path d="M190 385 c0 -12 13 -15 60 -15 47 0 60 3 60 15 0 12 -13 15 -60 15
-47 0 -60 -3 -60 -15z"/>
<path d="M350 385 c0 -12 13 -15 60 -15 47 0 60 3 60 15 0 12 -13 15 -60 15
-47 0 -60 -3 -60 -15z"/>
<path d="M510 385 c0 -12 13 -15 60 -15 47 0 60 3 60 15 0 12 -13 15 -60 15
-47 0 -60 -3 -60 -15z"/>
<path d="M2110 385 c0 -12 13 -15 60 -15 47 0 60 3 60 15 0 12 -13 15 -60 15
-47 0 -60 -3 -60 -15z"/>
<path d="M2270 385 c0 -12 13 -15 60 -15 47 0 60 3 60 15 0 12 -13 15 -60 15
-47 0 -60 -3 -60 -15z"/>
<path d="M2430 385 c0 -12 13 -15 60 -15 47 0 60 3 60 15 0 12 -13 15 -60 15
-47 0 -60 -3 -60 -15z"/>
<path d="M2590 385 c0 -12 13 -15 60 -15 47 0 60 3 60 15 0 12 -13 15 -60 15
-47 0 -60 -3 -60 -15z"/>
<path d="M2750 385 c0 -12 13 -15 60 -15 47 0 60 3 60 15 0 12 -13 15 -60 15
-47 0 -60 -3 -60 -15z"/>
<path d="M2910 385 c0 -10 10 -15 30 -15 20 0 30 5 30 15 0 10 -10 15 -30 15
-20 0 -30 -5 -30 -15z"/>
</g>
</svg>
